<svg width="72" height="72" viewBox="0 0 72 72" fill="none" xmlns="http://www.w3.org/2000/svg">
<g clip-path="url(#clip0_1_69)">
<path d="M36 63C50.9117 63 63 50.9117 63 36C63 21.0883 50.9117 9 36 9C21.0883 9 9 21.0883 9 36C9 50.9117 21.0883 63 36 63Z" stroke="url(#paint0_linear_1_69)" stroke-width="6"/>
<path d="M36 45.72C43.9529 45.72 50.4 40.5623 50.4 34.2C50.4 27.8377 43.9529 22.68 36 22.68C28.0471 22.68 21.6 27.8377 21.6 34.2C21.6 40.5623 28.0471 45.72 36 45.72Z" fill="url(#paint1_radial_1_69)"/>
<path d="M30.6 43.2L27 48.6L34.2 45L30.6 43.2Z" fill="url(#paint2_radial_1_69)"/>
<path d="M36 25.2L37.8 28.8L34.2 32.4L37.8 36L34.2 39.6L36 43.2" stroke="#1A202C" stroke-width="2" stroke-linecap="round" stroke-linejoin="round"/>
</g>
<defs>
<linearGradient id="paint0_linear_1_69" x1="9" y1="9" x2="5409" y2="5409" gradientUnits="userSpaceOnUse">
<stop stop-color="#A78BFA"/>
<stop offset="0.5" stop-color="#8B5CF6"/>
<stop offset="1" stop-color="#7C3AED"/>
</linearGradient>
<radialGradient id="paint1_radial_1_69" cx="0" cy="0" r="1" gradientUnits="userSpaceOnUse" gradientTransform="translate(1461.6 944.28) scale(14.4 11.52)">
<stop stop-color="#A78BFA"/>
<stop offset="1" stop-color="#6D28D9"/>
</radialGradient>
<radialGradient id="paint2_radial_1_69" cx="0" cy="0" r="1" gradientUnits="userSpaceOnUse" gradientTransform="translate(387 259.2) scale(3.6 2.7)">
<stop stop-color="#A78BFA"/>
<stop offset="1" stop-color="#6D28D9"/>
</radialGradient>
<clipPath id="clip0_1_69">
<rect width="72" height="72" fill="white"/>
</clipPath>
</defs>
</svg>
